<svg width="500" height="101" viewBox="0 0 500 101" fill="none" xmlns="http://www.w3.org/2000/svg">
<path d="M27 26H79L53 1L27 26Z" fill="#4A9BC3"/>
<path d="M27 76H79L53 51L27 76Z" fill="#4A9BC3"/>
<path d="M1 51H53L27 26L1 51Z" fill="#4A9BC3"/>
<path d="M1 101H53L27 76L1 101Z" fill="#4A9BC3"/>
<path d="M27 26H79L53 51L27 26Z" fill="#4A9BC3"/>
<path d="M27 76H79L53 101L27 76Z" fill="#4A9BC3"/>
<path d="M1 1H53L27 26L1 1Z" fill="#82C8DE"/>
<path d="M1 51H53L27 76L1 51Z" fill="#82C8DE"/>
<path d="M1 1V51L27 26L1 1Z" fill="#82C8DE"/>
<path d="M1 51V101L27 76L1 51Z" fill="#82C8DE"/>
<path d="M1.25977 1.25L26.9998 26L1.25977 1.25Z" fill="black"/>
<path d="M1.25977 1.25L26.9998 26" stroke="#82C8DE"/>
<path d="M1.25977 51.25L26.9998 76L1.25977 51.25Z" fill="black"/>
<path d="M1.25977 51.25L26.9998 76" stroke="#82C8DE"/>
<path d="M27 26H79L53 1L27 26Z" fill="#408FB6"/>
<path d="M27 76H79L53 51L27 76Z" fill="#408FB6"/>
<path d="M1 51H53L27 26L1 51Z" fill="#408FB6"/>
<path d="M1 101H53L27 76L1 101Z" fill="#408FB6"/>
<path d="M27 26H79L53 51L27 26Z" fill="#408FB6"/>
<path d="M27 76H79L53 101L27 76Z" fill="#408FB6"/>
<path d="M1 1H53L27 26L1 1Z" fill="#82C8DE"/>
<path d="M1 51H53L27 76L1 51Z" fill="#82C8DE"/>
<path d="M1 1V51L27 26L1 1Z" fill="#82C8DE"/>
<path d="M1 51V101L27 76L1 51Z" fill="#82C8DE"/>
<path d="M1.25977 1.25L26.9998 26L1.25977 1.25Z" fill="black"/>
<path d="M1.25977 1.25L26.9998 26" stroke="#82C8DE"/>
<path d="M1.25977 51.25L26.9998 76L1.25977 51.25Z" fill="black"/>
<path d="M1.25977 51.25L26.9998 76" stroke="#82C8DE"/>
<path fill-rule="evenodd" clip-rule="evenodd" d="M155.298 60.8994C155.298 62.6983 154.938 64.2772 154.219 65.6364C153.499 66.9955 152.51 68.1348 151.25 69.0542C149.991 69.9736 148.532 70.6731 146.873 71.1528C145.214 71.6325 143.446 71.8723 141.567 71.8723H121V29.2998H143.785C145.264 29.2998 146.603 29.6196 147.803 30.2592C149.002 30.8988 150.021 31.7282 150.861 32.7476C151.7 33.7669 152.35 34.9262 152.809 36.2253C153.269 37.5245 153.499 38.8337 153.499 40.1528C153.499 42.2315 152.979 44.1802 151.94 45.999C150.901 47.8179 149.382 49.167 147.383 50.0464C149.821 50.766 151.75 52.0551 153.169 53.914C154.588 55.7728 155.298 58.1012 155.298 60.8994ZM146.963 59.3404C146.963 58.5809 146.833 57.8514 146.573 57.1518C146.314 56.4523 145.964 55.8427 145.524 55.323C145.084 54.8034 144.565 54.3936 143.965 54.0938C143.366 53.794 142.706 53.6441 141.986 53.6441H129.275V64.8568H141.567C142.326 64.8568 143.036 64.7169 143.695 64.4371C144.355 64.1573 144.925 63.7676 145.404 63.2679C145.884 62.7682 146.264 62.1786 146.544 61.499C146.823 60.8194 146.963 60.1 146.963 59.3404ZM129.275 36.3753V47.1083H140.308C141.707 47.1083 142.896 46.6286 143.875 45.6692C144.855 44.7098 145.344 43.3907 145.344 41.7118C145.344 40.0728 144.895 38.7737 143.995 37.8143C143.096 36.8549 141.986 36.3753 140.667 36.3753H129.275ZM182.76 64.8568C184.719 64.8568 186.368 64.4571 187.707 63.6577C189.046 62.8582 190.125 61.8188 190.945 60.5396C191.764 59.2604 192.344 57.7915 192.684 56.1325C193.024 54.4736 193.193 52.7647 193.193 51.0058V29.2998H201.408V51.0058C201.408 53.924 201.058 56.6622 200.359 59.2205C199.659 61.7789 198.56 64.0174 197.061 65.9361C195.562 67.8549 193.633 69.3739 191.275 70.4932C188.916 71.6125 186.098 72.1721 182.82 72.1721C179.422 72.1721 176.534 71.5825 174.156 70.4033C171.777 69.224 169.848 67.6651 168.369 65.7263C166.89 63.7876 165.821 61.539 165.161 58.9806C164.502 56.4223 164.172 53.7641 164.172 51.0058V29.2998H172.447V51.0058C172.447 52.8047 172.617 54.5335 172.956 56.1925C173.296 57.8514 173.876 59.3204 174.695 60.5996C175.515 61.8788 176.584 62.9081 177.903 63.6876C179.222 64.4671 180.841 64.8568 182.76 64.8568ZM238.104 40.4526C237.825 40.1728 237.315 39.7931 236.575 39.3134C235.836 38.8337 234.936 38.364 233.877 37.9043C232.818 37.4446 231.669 37.0548 230.429 36.735C229.19 36.4152 227.931 36.2553 226.652 36.2553C224.373 36.2553 222.674 36.6751 221.555 37.5145C220.436 38.354 219.876 39.5332 219.876 41.0522C219.876 41.9317 220.086 42.6612 220.506 43.2408C220.926 43.8204 221.535 44.3301 222.335 44.7698C223.134 45.2095 224.143 45.6093 225.363 45.9691C226.582 46.3288 227.991 46.7086 229.59 47.1083C231.669 47.668 233.557 48.2676 235.256 48.9072C236.955 49.5467 238.394 50.3462 239.573 51.3056C240.753 52.265 241.662 53.4143 242.302 54.7534C242.941 56.0926 243.261 57.7414 243.261 59.7002C243.261 61.9787 242.831 63.9274 241.972 65.5464C241.112 67.1653 239.953 68.4745 238.494 69.4739C237.035 70.4733 235.356 71.2027 233.457 71.6624C231.559 72.1221 229.57 72.352 227.491 72.352C224.293 72.352 221.135 71.8723 218.017 70.9129C214.899 69.9536 212.101 68.5945 209.623 66.8356L213.28 59.7002C213.64 60.0599 214.29 60.5296 215.229 61.1092C216.169 61.6889 217.278 62.2685 218.557 62.8482C219.836 63.4278 221.255 63.9175 222.814 64.3172C224.373 64.717 225.972 64.9168 227.611 64.9168C232.168 64.9168 234.447 63.4578 234.447 60.5396C234.447 59.6202 234.187 58.8408 233.667 58.2012C233.148 57.5616 232.408 57.0019 231.449 56.5222C230.489 56.0425 229.33 55.6028 227.971 55.2031C226.612 54.8034 225.093 54.3636 223.414 53.8839C221.375 53.3243 219.606 52.7147 218.107 52.0551C216.608 51.3955 215.359 50.616 214.36 49.7166C213.36 48.8172 212.611 47.7779 212.111 46.5987C211.612 45.4194 211.362 44.0103 211.362 42.3714C211.362 40.2128 211.761 38.294 212.561 36.6151C213.36 34.9362 214.47 33.5371 215.889 32.4178C217.308 31.2985 218.957 30.4491 220.836 29.8695C222.714 29.2898 224.733 29 226.892 29C229.89 29 232.648 29.4697 235.166 30.4091C237.685 31.3485 239.883 32.4578 241.762 33.7369L238.104 40.4526ZM284.035 36.5551H270.424V71.8723H262.209V36.5551H248.598V29.2998H284.035V36.5551ZM325.228 60.8994C325.228 62.4984 324.908 63.9675 324.269 65.3066C323.629 66.6457 322.77 67.805 321.69 68.7843C320.611 69.7637 319.352 70.5232 317.913 71.0628C316.474 71.6025 314.935 71.8723 313.296 71.8723H293.209V29.2998H313.716C315.195 29.2998 316.534 29.6196 317.733 30.2592C318.932 30.8988 319.952 31.7282 320.791 32.7476C321.631 33.7669 322.28 34.9262 322.74 36.2253C323.199 37.5245 323.429 38.8337 323.429 40.1528C323.429 42.3114 322.89 44.2801 321.81 46.059C320.731 47.8379 319.232 49.167 317.313 50.0464C319.752 50.766 321.68 52.1051 323.1 54.0639C324.519 56.0226 325.228 58.3011 325.228 60.8994ZM321.031 60.1799C321.031 59.1406 320.851 58.1312 320.491 57.1518C320.131 56.1725 319.622 55.313 318.962 54.5735C318.303 53.8339 317.523 53.2343 316.624 52.7746C315.724 52.3149 314.755 52.0851 313.716 52.0851H297.406V68.2147H313.296C314.375 68.2147 315.385 67.9949 316.324 67.5551C317.263 67.1154 318.083 66.5258 318.782 65.7863C319.482 65.0467 320.032 64.1873 320.431 63.208C320.831 62.2286 321.031 61.2192 321.031 60.1799ZM297.406 32.9574V48.6673H312.037C313.076 48.6673 314.045 48.4475 314.945 48.0077C315.844 47.568 316.614 46.9884 317.253 46.2689C317.893 45.5493 318.393 44.7199 318.752 43.7805C319.112 42.8411 319.292 41.8517 319.292 40.8124C319.292 39.7331 319.122 38.7137 318.782 37.7543C318.443 36.795 317.963 35.9655 317.343 35.266C316.724 34.5664 315.994 34.0068 315.155 33.587C314.315 33.1673 313.396 32.9574 312.396 32.9574H297.406ZM334.642 29.2998L348.553 52.205L362.584 29.2998H367.141L350.652 56.0426V71.8723H346.454V55.9226L330.025 29.2998H334.642ZM406.656 33.0174H391.485V71.8723H387.288V33.0174H372.118V29.2998H406.656V33.0174ZM444.611 68.1547V71.8723H416.01V29.2998H444.072V33.0174H420.207V48.3675H441.013V51.9052H420.207V68.1547H444.611Z" fill="#408FB6"/>
</svg>
